<svg xmlns="http://www.w3.org/2000/svg" viewBox="0 0 400 100">
  <defs>
    <linearGradient id="g" x1="0%" y1="0%" x2="100%" y2="0%">
      <stop offset="0%" style="stop-color:#6366f1"/>
      <stop offset="100%" style="stop-color:#8b5cf6"/>
    </linearGradient>
  </defs>
  <rect width="400" height="100" fill="none"/>
  <!-- Brain/memory icon -->
  <circle cx="45" cy="50" r="28" fill="none" stroke="url(#g)" stroke-width="2.5"/>
  <path d="M32 50 C32 38, 45 30, 45 42 C45 30, 58 38, 58 50 C58 62, 45 70, 45 58 C45 70, 32 62, 32 50Z" fill="url(#g)" opacity="0.15"/>
  <circle cx="38" cy="44" r="3" fill="url(#g)" opacity="0.6"/>
  <circle cx="52" cy="44" r="3" fill="url(#g)" opacity="0.6"/>
  <circle cx="45" cy="55" r="3" fill="url(#g)" opacity="0.6"/>
  <line x1="38" y1="44" x2="45" y2="55" stroke="url(#g)" stroke-width="1.5" opacity="0.4"/>
  <line x1="52" y1="44" x2="45" y2="55" stroke="url(#g)" stroke-width="1.5" opacity="0.4"/>
  <line x1="38" y1="44" x2="52" y2="44" stroke="url(#g)" stroke-width="1.5" opacity="0.4"/>
  <!-- Text -->
  <text x="85" y="58" font-family="system-ui, -apple-system, sans-serif" font-size="38" font-weight="700" fill="url(#g)">mnemonic</text>
  <!-- Tagline -->
  <text x="86" y="78" font-family="system-ui, -apple-system, sans-serif" font-size="12" fill="#94a3b8">memory daemon for AI agents</text>
</svg>
